<?xml version="1.0" encoding="UTF-8" standalone="no"?> <!-- Created with Vectornator for iOS (http://vectornator.io/) --><!DOCTYPE svg PUBLIC "-//W3C//DTD SVG 1.1//EN" "http://www.w3.org/Graphics/SVG/1.1/DTD/svg11.dtd">
<svg style="fill-rule:evenodd;clip-rule:evenodd;stroke-linecap:round;stroke-linejoin:round;" xmlns:vectornator="http://vectornator.io" xmlns:xlink="http://www.w3.org/1999/xlink" xmlns="http://www.w3.org/2000/svg" xml:space="preserve" version="1.1" viewBox="0 0 800 400">
<metadata>
<vectornator:setting key="DimensionsVisible" value="1"/>
<vectornator:setting key="SnapToGrid" value="0"/>
<vectornator:setting key="SnapToPoints" value="1"/>
<vectornator:setting key="GuidesVisible" value="1"/>
<vectornator:setting key="RulersVisible" value="1"/>
<vectornator:setting key="SnapToEdges" value="1"/>
<vectornator:setting key="DisplayWhiteBackground" value="0"/>
<vectornator:setting key="SnapToGuides" value="1"/>
<vectornator:setting key="GridSpacing" value="36"/>
<vectornator:setting key="Units" value="Pixels"/>
<vectornator:setting key="DynamicGuides" value="1"/>
<vectornator:setting key="New" value="1"/>
</metadata>
<defs>
<linearGradient y1="95.2265" id="LinearGradient" x1="48.9266" y2="95.045" x2="570.137" gradientUnits="userSpaceOnUse" gradientTransform="matrix(1.21035 0 0 0.805734 21.4409 219.352)">
<stop stop-color="#2c5751" offset="0.0703883"/>
<stop stop-color="#080b22" offset="0.550971"/>
<stop stop-color="#000000" offset="1"/>
</linearGradient>
<linearGradient y1="296.008" id="LinearGradient_2" x1="279.485" y2="336.146" x2="575.924" gradientUnits="userSpaceOnUse" gradientTransform="matrix(-1.13709 0.249679 -0.0250894 -0.0375267 961.01 196.426)">
<stop stop-color="#161a4f" offset="0.621359"/>
<stop stop-opacity="0" stop-color="#ffffff" offset="1"/>
</linearGradient>
<linearGradient y1="91.6344" id="LinearGradient_3" x1="178.091" y2="91.6344" x2="592.225" gradientUnits="userSpaceOnUse" gradientTransform="matrix(-1.09002 -0.144991 0.0363582 -0.166787 798.002 249.049)">
<stop stop-color="#161a4f" offset="0.621359"/>
<stop stop-opacity="0" stop-color="#ffffff" offset="1"/>
</linearGradient>
<linearGradient y1="45.1642" id="LinearGradient_4" x1="257.261" y2="45.1642" x2="612" gradientUnits="userSpaceOnUse" gradientTransform="matrix(1.28574 -0.321917 0.410373 0.964845 -118.551 239.151)">
<stop stop-color="#161a4f" offset="0.621359"/>
<stop stop-opacity="0" stop-color="#ffffff" offset="1"/>
</linearGradient>
<linearGradient y1="91.031" id="LinearGradient_5" x1="790.647" y2="158.299" x2="790.647" gradientUnits="userSpaceOnUse" gradientTransform="matrix(1.10571 0 0 1.01492 -386.649 107.611)">
<stop stop-color="#358076" offset="0.0679612"/>
<stop stop-color="#0a0f33" offset="0.519417"/>
<stop stop-color="#000000" offset="1"/>
</linearGradient>
<linearGradient y1="91.031" id="LinearGradient_6" x1="790.647" y2="158.299" x2="790.647" gradientUnits="userSpaceOnUse" gradientTransform="matrix(1.10571 0 0 1.01492 -386.649 107.611)">
<stop stop-color="#358076" offset="0.0679612"/>
<stop stop-color="#0a0f33" offset="0.519417"/>
<stop stop-color="#000000" offset="1"/>
</linearGradient>
<linearGradient y1="91.031" id="LinearGradient_7" x1="790.647" y2="158.299" x2="790.647" gradientUnits="userSpaceOnUse" gradientTransform="matrix(1.10571 0 0 1.01492 -386.649 107.611)">
<stop stop-color="#358076" offset="0.0679612"/>
<stop stop-color="#0a0f33" offset="0.519417"/>
<stop stop-color="#000000" offset="1"/>
</linearGradient>
<linearGradient y1="91.031" id="LinearGradient_8" x1="790.647" y2="158.299" x2="790.647" gradientUnits="userSpaceOnUse" gradientTransform="matrix(1.10571 0 0 1.01492 -386.649 107.611)">
<stop stop-color="#358076" offset="0.0679612"/>
<stop stop-color="#0a0f33" offset="0.519417"/>
<stop stop-color="#000000" offset="1"/>
</linearGradient>
<linearGradient y1="91.031" id="LinearGradient_9" x1="790.647" y2="158.299" x2="790.647" gradientUnits="userSpaceOnUse" gradientTransform="matrix(1.10571 0 0 1.01492 -386.649 107.611)">
<stop stop-color="#358076" offset="0.0679612"/>
<stop stop-color="#0a0f33" offset="0.519417"/>
<stop stop-color="#000000" offset="1"/>
</linearGradient>
<linearGradient y1="91.031" id="LinearGradient_10" x1="790.647" y2="158.299" x2="790.647" gradientUnits="userSpaceOnUse" gradientTransform="matrix(1.10571 0 0 1.01492 -386.649 107.611)">
<stop stop-color="#358076" offset="0.0679612"/>
<stop stop-color="#0a0f33" offset="0.519417"/>
<stop stop-color="#000000" offset="1"/>
</linearGradient>
<linearGradient y1="91.031" id="LinearGradient_11" x1="790.647" y2="158.299" x2="790.647" gradientUnits="userSpaceOnUse" gradientTransform="matrix(1.10571 0 0 1.01492 -386.649 107.611)">
<stop stop-color="#358076" offset="0.0679612"/>
<stop stop-color="#0a0f33" offset="0.519417"/>
<stop stop-color="#000000" offset="1"/>
</linearGradient>
<linearGradient y1="91.031" id="LinearGradient_12" x1="790.647" y2="158.299" x2="790.647" gradientUnits="userSpaceOnUse" gradientTransform="matrix(1.10571 0 0 1.01492 -386.649 107.611)">
<stop stop-color="#358076" offset="0.0679612"/>
<stop stop-color="#0a0f33" offset="0.519417"/>
<stop stop-color="#000000" offset="1"/>
</linearGradient>
<linearGradient y1="91.031" id="LinearGradient_13" x1="790.647" y2="158.299" x2="790.647" gradientUnits="userSpaceOnUse" gradientTransform="matrix(1.10571 0 0 1.01492 -386.649 107.611)">
<stop stop-color="#358076" offset="0.0679612"/>
<stop stop-color="#0a0f33" offset="0.519417"/>
<stop stop-color="#000000" offset="1"/>
</linearGradient>
<linearGradient y1="117.097" id="LinearGradient_14" x1="403.113" y2="113.601" x2="70.7279" gradientUnits="userSpaceOnUse" gradientTransform="matrix(1.31854e-08 -1.01492 1.10571 1.21028e-08 60.9457 440.455)">
<stop stop-color="#1fba99" offset="0.0825243"/>
<stop stop-color="#0a0f33" offset="0.466019"/>
<stop stop-color="#000000" offset="1"/>
</linearGradient>
</defs>
<g id="图层 2" vectornator:layerName="图层 2" opacity="0.276119">
<path vectornator:shadowColor="#0f2b3c" vectornator:shadowOpacity="0.333" vectornator:shadowRadius="0" d="M80.6592+268.272L711.506+268.272L711.506+323.887L80.6592+323.887L80.6592+268.272Z" vectornator:shadowOffset="6.26" fill="url(#LinearGradient)" opacity="1" vectornator:shadowAngle="1.06235"/>
<path stroke="#405a67" vectornator:shadowColor="#0f2b3c" vectornator:shadowOffset="6.9163" stroke-width="2.43" fill="none" stroke-linecap="butt" vectornator:shadowAngle="1.39917" stroke-linejoin="round" opacity="1" vectornator:shadowRadius="0" d="M607.683+207.178L317.389+231.091" vectornator:shadowOpacity="0.333"/>
<path stroke="#405a67" vectornator:shadowColor="#0f2b3c" vectornator:shadowOffset="6.9163" stroke-width="2.43" fill="none" stroke-linecap="round" vectornator:shadowAngle="1.39917" stroke-linejoin="round" opacity="1" vectornator:shadowRadius="0" d="M393.219+244.493L153.893+331.121" vectornator:shadowOpacity="0.333"/>
<path stroke="#405a67" vectornator:shadowColor="#0f2b3c" vectornator:shadowOffset="6.9163" stroke-width="2.43" fill="none" stroke-linecap="round" vectornator:shadowAngle="1.39917" stroke-linejoin="round" opacity="1" vectornator:shadowRadius="0" d="M239.895+182.141L439.205+253.536" vectornator:shadowOpacity="0.333"/>
<path stroke="#405a67" vectornator:shadowColor="#0f2b3c" vectornator:shadowOffset="6.9163" stroke-width="2.43" fill="none" stroke-linecap="round" vectornator:shadowAngle="1.39917" stroke-linejoin="round" opacity="1" vectornator:shadowRadius="0" d="M458.805+142.813L391.658+236.504" vectornator:shadowOpacity="0.333"/>
<path vectornator:shadowColor="#0f2b3c" vectornator:shadowOpacity="0.333" vectornator:shadowRadius="0" d="M635.784+255.099L298.706+329.114L296.692+326.101L633.769+252.087L635.784+255.099Z" vectornator:shadowOffset="6.9163" fill="url(#LinearGradient_2)" opacity="1" vectornator:shadowAngle="1.39917"/>
<path vectornator:shadowColor="#0f2b3c" vectornator:shadowOpacity="0.333" vectornator:shadowRadius="0" d="M606.742+210.103L155.329+150.058L156.271+145.738L607.683+205.784L606.742+210.103Z" vectornator:shadowOffset="6.9163" fill="url(#LinearGradient_3)" opacity="1" vectornator:shadowAngle="1.39917"/>
<path vectornator:shadowColor="#0f2b3c" vectornator:shadowOpacity="0.333" vectornator:shadowRadius="0" d="M229.85+197.786L685.953+83.5892L687.76+87.8392L231.658+202.036L229.85+197.786Z" vectornator:shadowOffset="6.9163" fill="url(#LinearGradient_4)" opacity="1" vectornator:shadowAngle="1.39917"/>
</g>
<g id="图层 1" vectornator:layerName="图层 1">
<g opacity="1">
<path vectornator:shadowColor="#0f2b3c" vectornator:shadowOpacity="0.333" vectornator:shadowRadius="0" d="M261.272+243.202C261.272+238.597+262.128+234.784+263.84+231.763C265.552+228.743+268.119+226.467+271.543+224.936C274.967+223.406+278.951+222.64+283.496+222.64C290.314+222.64+295.501+224.279+299.058+227.557C302.614+230.835+304.392+235.644+304.392+241.983C304.392+245.641+303.876+248.81+302.843+251.492C301.81+254.174+300.423+256.335+298.681+257.974C296.94+259.613+295.11+260.852+293.192+261.692C289.916+263.101+286.226+263.805+282.124+263.805C275.454+263.805+270.311+262.065+266.695+258.583C263.08+255.102+261.272+249.975+261.272+243.202ZM273.535+241.252C273.535+248.458+274.686+253.592+276.988+256.653C278.523+258.685+280.707+259.701+283.541+259.701C285.961+259.701+287.879+258.929+289.296+257.385C291.185+255.326+292.129+251.343+292.129+245.437C292.129+241.293+291.753+237.737+291+234.77C290.248+231.804+289.141+229.738+287.68+228.573C286.219+227.408+284.456+226.826+282.39+226.826C280.619+226.826+279.069+227.253+277.741+228.106C276.413+228.959+275.38+230.395+274.642+232.413C273.904+234.432+273.535+237.378+273.535+241.252Z" vectornator:shadowOffset="4.93392" fill="url(#LinearGradient_5)" opacity="1" vectornator:shadowAngle="1.25265"/>
<path vectornator:shadowColor="#0f2b3c" vectornator:shadowOpacity="0.333" vectornator:shadowRadius="0" d="M325.643+262.708C325.525+262.356+325.259+261.34+324.846+259.66C324.61+258.739+324.241+257.452+323.739+255.8L320.02+243.69C318.456+238.624+317.453+235.4+317.01+234.019C315.947+230.795+315.195+228.898+314.752+228.33C314.575+228.086+314.294+227.91+313.911+227.801C313.291+227.585+311.756+227.449+309.307+227.395L309.307+224.185C313.025+224.266+317.01+224.307+321.26+224.307C325.628+224.307+329.819+224.266+333.833+224.185L333.833+227.395C330.675+227.395+328.786+227.557+328.166+227.883C327.783+228.072+327.591+228.397+327.591+228.858C327.591+229.373+327.738+230.158+328.033+231.215L333.39+249.704L341.093+234.181L343.75+228.898L346.406+223.169L350.922+223.169L363.451+249.704L367.833+237.757C368.483+235.888+369.132+233.788+369.781+231.459C370.076+230.267+370.224+229.481+370.224+229.102C370.224+228.451+369.995+228.038+369.538+227.862C369.08+227.686+367.243+227.53+364.026+227.395L364.026+224.185C367.184+224.266+370.121+224.307+372.836+224.307C375.492+224.307+378.621+224.266+382.222+224.185L382.222+227.395C380.126+227.503+379.005+227.571+378.857+227.598C378.444+227.706+378.067+227.889+377.728+228.147C377.389+228.404+377.116+228.709+376.909+229.061C376.702+229.413+375.965+231.161+374.695+234.303C374.194+235.522+373.323+237.771+372.083+241.049L369.737+247.469L369.029+249.298C368.675+250.246+367.73+252.887+366.195+257.222L364.424+262.708L357.208+262.708C354.404+256.531+352.781+252.969+352.338+252.021L345.211+237.107C342.643+241.983+340.739+245.688+339.5+248.221C338.26+250.754+337.168+253.036+336.224+255.068L332.859+262.708L325.643+262.708Z" vectornator:shadowOffset="4.93392" fill="url(#LinearGradient_6)" opacity="1" vectornator:shadowAngle="1.25265"/>
<path vectornator:shadowColor="#0f2b3c" vectornator:shadowOpacity="0.333" vectornator:shadowRadius="0" d="M424.501+256.125L422.553+260.107C420.133+261.462+417.639+262.464+415.071+263.114C413.153+263.575+410.969+263.805+408.519+263.805C405.597+263.805+403.022+263.494+400.793+262.87C398.565+262.247+396.661+261.394+395.082+260.31C393.503+259.227+392.116+257.899+390.921+256.328C389.726+254.757+388.862+252.942+388.331+250.883C387.8+248.824+387.534+246.575+387.534+244.137C387.534+240.588+388.051+237.419+389.084+234.628C389.792+232.678+390.618+231.269+391.563+230.402C392.153+229.86+393.688+228.844+396.167+227.354C398.646+225.864+400.447+224.889+401.568+224.428C403.634+223.589+406.069+223.169+408.873+223.169C412.828+223.169+416.074+223.927+418.613+225.444C421.151+226.961+422.944+228.898+423.992+231.255C425.039+233.612+425.563+236.47+425.563+239.83C425.563+240.588+425.534+241.32+425.475+242.024C424.737+242.241+423.615+242.485+422.11+242.755C420.103+243.108+418.746+243.297+418.037+243.324C415.824+243.487+412.902+243.582+409.271+243.609C405.641+243.636+403.634+243.663+403.251+243.69C402.867+243.717+402.439+243.731+401.967+243.731L399.045+243.731C399.281+248.011+400.727+251.391+403.383+253.87C406.04+256.348+409.316+257.588+413.212+257.588C414.894+257.588+416.443+257.418+417.86+257.08C419.277+256.741+421.136+256.044+423.438+254.987L424.501+256.125ZM413.964+239.301C414.082+234.994+413.448+231.973+412.061+230.239C410.644+228.533+408.814+227.679+406.571+227.679C404.269+227.679+402.365+228.573+400.86+230.361C399.325+232.176+398.617+235.156+398.735+239.301C400.476+239.545+403.383+239.667+407.456+239.667C410.054+239.667+412.223+239.545+413.964+239.301Z" vectornator:shadowOffset="4.93392" fill="url(#LinearGradient_7)" opacity="1" vectornator:shadowAngle="1.25265"/>
<path vectornator:shadowColor="#0f2b3c" vectornator:shadowOpacity="0.333" vectornator:shadowRadius="0" d="M456.907+259.254L456.907+262.383C453.572+262.247+449.854+262.18+445.751+262.18C441.176+262.18+436.425+262.247+431.496+262.383L431.496+259.254C433.798+259.254+435.392+259.105+436.277+258.807C436.69+258.671+437+258.441+437.207+258.116C437.502+257.601+437.664+256.626+437.694+255.19L437.871+251.574C437.9+250.815+437.915+249.582+437.915+247.876L437.915+242.552C437.915+240.141+437.827+237.215+437.649+233.775C437.561+232.041+437.435+231.059+437.273+230.829C437.111+230.598+436.853+230.429+436.498+230.321C435.938+230.131+434.27+229.996+431.496+229.914L431.496+226.785C436.867+225.946+440.394+225.322+442.077+224.916C443.759+224.51+445.663+223.86+447.788+222.966L448.983+223.453L448.894+231.662C450.813+229.847+452.289+228.343+453.322+227.151C454.856+225.471+456.007+224.401+456.775+223.941C457.837+223.291+459.239+222.966+460.98+222.966C462.072+222.966+463.061+223.128+463.947+223.453L463.681+229.224C463.592+232.366+463.519+234.168+463.46+234.628L461.6+235.156C460.862+234.262+460.154+233.639+459.475+233.287C458.383+232.718+457.188+232.434+455.889+232.434C454.148+232.434+452.65+232.928+451.396+233.917C450.141+234.906+449.396+235.915+449.16+236.944C449.042+237.54+448.983+239.83+448.983+243.812L448.983+247.876L449.071+253.402C449.101+255.488+449.182+256.768+449.315+257.242C449.448+257.716+449.75+258.089+450.223+258.36C450.695+258.631+451.713+258.82+453.277+258.929L456.907+259.254Z" vectornator:shadowOffset="4.93392" fill="url(#LinearGradient_8)" opacity="1" vectornator:shadowAngle="1.25265"/>
<path vectornator:shadowColor="#0f2b3c" vectornator:shadowOpacity="0.333" vectornator:shadowRadius="0" d="M472.801+252.915L478.955+248.81C476.771+248.079+475.022+247.232+473.708+246.271C472.395+245.309+471.347+244.042+470.565+242.471C469.783+240.9+469.392+239.166+469.392+237.27C469.392+234.696+470.115+232.292+471.561+230.057C473.008+227.822+475.273+226.04+478.357+224.713C481.441+223.385+485.049+222.722+489.181+222.722C491.956+222.722+494.516+223.013+496.862+223.595C499.209+224.178+501.179+225.038+502.773+226.176C504.485+226.257+505.665+226.298+506.314+226.298C507.2+226.298+509.605+226.216+513.531+226.054L512.911+231.052L505.916+231.052C506.3+232.407+506.491+233.721+506.491+234.994C506.491+237.893+505.65+240.453+503.968+242.674C502.286+244.896+499.917+246.602+496.862+247.794C493.808+248.986+490.569+249.582+487.145+249.582C486.23+249.582+484.946+249.515+483.293+249.379C482.378+249.867+481.685+250.443+481.213+251.106C480.74+251.77+480.504+252.386+480.504+252.955C480.504+253.443+480.703+253.903+481.102+254.337C481.5+254.77+482.054+255.055+482.762+255.19C483.736+255.38+486.171+255.475+490.067+255.475L500.958+255.231C504.145+255.231+506.61+255.569+508.351+256.247C510.092+256.924+511.391+257.953+512.247+259.335C513.103+260.717+513.531+262.545+513.531+264.821C513.531+268.207+512.66+271.269+510.919+274.005C509.177+276.741+506.565+278.99+503.083+280.751C498.685+282.945+493.446+284.042+487.366+284.042C482.585+284.042+478.689+283.433+475.679+282.213C472.668+280.994+470.558+279.545+469.348+277.865C468.138+276.186+467.533+274.357+467.533+272.379C467.533+271.242+467.724+270.212+468.108+269.291C468.492+268.37+468.935+267.679+469.436+267.219C469.938+266.758+470.927+266.135+472.402+265.349C475.236+263.886+476.815+263.087+477.14+262.952C475.546+262.789+474.114+262.261+472.845+261.367C471.694+260.392+471.119+259.281+471.119+258.035C471.119+257.357+471.266+256.599+471.561+255.759C471.975+254.567+472.388+253.619+472.801+252.915ZM480.504+235.4C480.504+239.139+481.213+241.807+482.629+243.406C484.046+245.004+485.891+245.803+488.163+245.803C490.672+245.803+492.59+244.869+493.918+242.999C494.863+241.645+495.335+239.613+495.335+236.904C495.335+233.111+494.671+230.456+493.343+228.939C492.015+227.422+490.17+226.663+487.809+226.663C485.566+226.663+483.788+227.354+482.474+228.736C481.161+230.118+480.504+232.339+480.504+235.4ZM482.054+263.358C479.633+264.767+478.018+266.06+477.206+267.239C476.394+268.417+475.988+269.738+475.988+271.201C475.988+273.666+477.088+275.725+479.287+277.378C481.486+279.03+484.784+279.857+489.181+279.857C493.786+279.857+497.305+278.868+499.74+276.89C502.175+274.912+503.392+272.406+503.392+269.372C503.392+267.909+503.149+266.792+502.662+266.02C502.175+265.248+501.489+264.638+500.603+264.191C499.718+263.744+498.493+263.487+496.929+263.419C495.365+263.351+491.749+263.317+486.082+263.317C485.049+263.317+483.706+263.331+482.054+263.358Z" vectornator:shadowOffset="4.93392" fill="url(#LinearGradient_9)" opacity="1" vectornator:shadowAngle="1.25265"/>
<path vectornator:shadowColor="#0f2b3c" vectornator:shadowOpacity="0.333" vectornator:shadowRadius="0" d="M555.544+256.125L553.596+260.107C551.176+261.462+548.682+262.464+546.114+263.114C544.196+263.575+542.012+263.805+539.562+263.805C536.64+263.805+534.065+263.494+531.837+262.87C529.609+262.247+527.705+261.394+526.126+260.31C524.547+259.227+523.16+257.899+521.964+256.328C520.769+254.757+519.906+252.942+519.374+250.883C518.843+248.824+518.578+246.575+518.578+244.137C518.578+240.588+519.094+237.419+520.127+234.628C520.835+232.678+521.662+231.269+522.606+230.402C523.197+229.86+524.731+228.844+527.211+227.354C529.69+225.864+531.49+224.889+532.612+224.428C534.678+223.589+537.113+223.169+539.916+223.169C543.871+223.169+547.118+223.927+549.656+225.444C552.194+226.961+553.987+228.898+555.035+231.255C556.083+233.612+556.607+236.47+556.607+239.83C556.607+240.588+556.577+241.32+556.518+242.024C555.78+242.241+554.659+242.485+553.154+242.755C551.147+243.108+549.789+243.297+549.081+243.324C546.867+243.487+543.945+243.582+540.315+243.609C536.685+243.636+534.678+243.663+534.294+243.69C533.91+243.717+533.482+243.731+533.01+243.731L530.088+243.731C530.324+248.011+531.77+251.391+534.427+253.87C537.083+256.348+540.359+257.588+544.255+257.588C545.937+257.588+547.487+257.418+548.904+257.08C550.32+256.741+552.18+256.044+554.482+254.987L555.544+256.125ZM545.008+239.301C545.126+234.994+544.491+231.973+543.104+230.239C541.687+228.533+539.857+227.679+537.614+227.679C535.312+227.679+533.409+228.573+531.903+230.361C530.369+232.176+529.66+235.156+529.778+239.301C531.52+239.545+534.427+239.667+538.5+239.667C541.097+239.667+543.266+239.545+545.008+239.301Z" vectornator:shadowOffset="4.93392" fill="url(#LinearGradient_10)" opacity="1" vectornator:shadowAngle="1.25265"/>
<path vectornator:shadowColor="#0f2b3c" vectornator:shadowOpacity="0.333" vectornator:shadowRadius="0" d="M561.831+231.459L561.831+229.63L565.815+227.314C566.465+226.934+567.084+226.528+567.675+226.095L567.675+220.649C567.675+218.699+567.557+216.288+567.32+213.416C570.183+212.549+572.043+211.967+572.899+211.669C573.046+211.614+574.92+210.815+578.521+209.271L579.672+210.084L579.229+214.31L578.92+218.983L578.521+226.095L579.982+226.095C583.907+226.095+586.874+225.959+588.881+225.688L588.128+231.174C587.774+231.228+587.449+231.255+587.154+231.255L582.815+231.174L578.521+231.174L578.521+244.747C578.521+248.919+578.565+251.384+578.654+252.142C578.772+253.416+579.266+254.411+580.137+255.129C581.008+255.847+582.269+256.206+583.922+256.206C584.926+256.233+585.73+256.213+586.335+256.145C586.94+256.077+587.715+255.949+588.659+255.759L589.368+257.425L587.774+258.888C586.475+260.107+585.339+261.177+584.365+262.098C583.214+262.559+582.188+262.864+581.288+263.013C580.388+263.162+579.466+263.236+578.521+263.236C575.097+263.236+572.404+262.43+570.442+260.818C568.479+259.206+567.498+257.195+567.498+254.784L567.675+241.374L567.675+231.337L566.479+231.337C564.856+231.337+563.306+231.377+561.831+231.459Z" vectornator:shadowOffset="4.93392" fill="url(#LinearGradient_11)" opacity="1" vectornator:shadowAngle="1.25265"/>
<path vectornator:shadowColor="#0f2b3c" vectornator:shadowOpacity="0.333" vectornator:shadowRadius="0" d="M605.172+203.541C607.061+203.541+608.663+204.151+609.976+205.37C611.289+206.589+611.946+208.052+611.946+209.759C611.946+211.493+611.289+212.969+609.976+214.188C608.663+215.407+607.061+216.017+605.172+216.017C603.313+216.017+601.719+215.407+600.391+214.188C599.063+212.969+598.399+211.493+598.399+209.759C598.399+208.052+599.056+206.589+600.369+205.37C601.682+204.151+603.284+203.541+605.172+203.541ZM593.042+262.383L593.042+259.376C596.348+259.159+598.237+258.922+598.709+258.665C599.181+258.407+599.476+257.926+599.594+257.222C599.889+255.732+600.037+251.899+600.037+245.722C600.037+237.242+599.904+232.42+599.639+231.255C599.52+230.714+599.329+230.361+599.063+230.199C598.473+229.847+596.466+229.657+593.042+229.63L593.042+226.542C597.499+226.108+600.863+225.648+603.136+225.16C605.409+224.672+607.888+223.927+610.574+222.925L611.636+223.453C611.282+227.679+611.105+231.648+611.105+235.36L611.105+249.176C611.105+253.89+611.223+256.68+611.459+257.547C611.577+258.035+611.813+258.36+612.167+258.522C612.964+258.875+614.897+259.105+617.967+259.213L617.967+262.383C613.776+262.274+609.216+262.22+604.287+262.22C600.037+262.22+596.289+262.274+593.042+262.383Z" vectornator:shadowOffset="4.93392" fill="url(#LinearGradient_12)" opacity="1" vectornator:shadowAngle="1.25265"/>
<path vectornator:shadowColor="#0f2b3c" vectornator:shadowOpacity="0.333" vectornator:shadowRadius="0" d="M658.298+257.019L656.35+260.961C653.812+262.125+651.753+262.891+650.174+263.257C648.595+263.622+646.699+263.805+644.486+263.805C639.645+263.805+635.72+262.938+632.709+261.204C629.699+259.471+627.411+256.992+625.847+253.768C624.726+251.492+624.165+248.458+624.165+244.665C624.165+241.821+624.46+239.491+625.05+237.676C625.641+235.861+626.482+234.262+627.574+232.881C628.312+231.96+629.3+231.093+630.54+230.28L637.358+226.338C639.66+224.984+641.239+224.171+642.095+223.9C643.512+223.413+645.356+223.169+647.629+223.169C649.518+223.169+651.281+223.311+652.919+223.595C654.557+223.88+656.07+224.307+657.457+224.875L657.9+225.566L656.793+232.19C656.704+232.786+656.557+234.655+656.35+237.798L652.897+237.798C652.72+235.387+652.499+233.599+652.233+232.434C651.613+231.513+650.654+230.761+649.355+230.178C648.057+229.596+646.463+229.305+644.574+229.305C642.331+229.305+640.545+229.684+639.217+230.443C637.889+231.201+636.915+232.474+636.295+234.262C635.675+236.05+635.366+238.218+635.366+240.764C635.366+244.178+636+247.232+637.269+249.928C638.538+252.623+640.213+254.601+642.294+255.861C644.375+257.12+646.935+257.75+649.975+257.75C651.362+257.75+652.676+257.608+653.915+257.324C655.155+257.039+656.335+256.626+657.457+256.084L658.298+257.019Z" vectornator:shadowOffset="4.93392" fill="url(#LinearGradient_13)" opacity="1" vectornator:shadowAngle="1.25265"/>
</g>
<path vectornator:shadowColor="#0f2b3c" vectornator:shadowOpacity="0.333" vectornator:shadowRadius="0" d="M186.555+368.672C198.666+368.672+143.549+359.83+165.49+315.053C167.845+310.247+263.478+270.748+255.645+258.905C235.854+228.982+253.136+208.322+253.031+205.134C253.642+207.751+272.823+168.297+262.927+186.715C253.031+205.134+244.142+200+239.895+182.141C238.274+175.325+237.836+169.748+244.715+159.963C253.735+147.133+246.157+137.995+244.432+131.024C244.432+131.024+249.027+148.451+225.694+163.522C195.525+183.007+207.163+148.415+200.292+163.522C190.357+185.366+166.409+168.546+158.713+154.102C152.659+150.602+156.547+150.242+149.966+139.011C142.856+126.879+167.235+88.1126+174.904+105.304C177.08+110.18+170.612+124.759+172.75+125.05C176.169+125.515+187.983+108.356+189.752+99.064C191.208+91.4166+195.75+69.8274+200.84+58.4365C209.229+39.663+219.105+31.3281+219.105+31.3281C219.105+31.3281+196.963+43.9143+189.389+64.7076C181.467+86.4566+161.402+95.3527+156.433+99.4716C146.579+107.639+164.86+67.4421+165.844+65.6782C175.138+49.0159+131.491+116.757+133.249+126.438C131.099+130.766+128.221+126.305+125.128+124.873C116.409+145.463+115.316+172.961+115.316+172.961C114.771+186.114+114.942+206.703+118.552+204.597C119.54+204.021+120.787+195.122+122.347+191.891C121.612+183.371+131.561+178.607+134.861+191.285C137.845+202.753+174.94+219.109+174.94+219.109C174.94+219.109+164.976+211.118+163.103+202.777C160.433+190.889+166.811+178.291+178.697+187.097C188.113+194.074+195.869+197.337+202.49+218.108C212.878+250.701+181.092+267.509+185.202+251.372C187.483+242.415+181.833+270.748+153.527+268.151C141.011+267.003+152.767+234.634+152.767+234.634C148.316+243.76+131.733+261.858+134.305+283.273C138.314+316.671+142.336+352.651+142.336+352.651" vectornator:shadowOffset="10.1101" fill="url(#LinearGradient_14)" opacity="1" vectornator:shadowAngle="1.39917"/>
</g>
</svg>
